<?xml version="1.0" encoding="utf-8"?>
<!-- Generator: Adobe Illustrator 24.0.2, SVG Export Plug-In . SVG Version: 6.00 Build 0)  -->
<svg version="1.1" id="Capa_1" xmlns="http://www.w3.org/2000/svg" xmlns:xlink="http://www.w3.org/1999/xlink" x="0px" y="0px"
	 viewBox="0 0 280 280" style="enable-background:new 0 0 280 280;" xml:space="preserve">
<g>
	<path style="fill:#FFFFFF;" d="M155.2,199.9c-6.8,6.5-13.5,11.2-21.1,13.8c-5.1,1.7-10.8,1.8-16.2,2.4c-3.1,0.3-7.1,2.8-6.3,4.8
		c0.7,1.7,3.4,3.2,5.4,3.6c6.4,1.3,12.7,0.7,18.6-2.3c10-5.1,20.2-9.8,29.9-15.4c29.4-17.1,53.8-39.2,69.3-70.2
		c13-25.7,5.3-56.6-18.6-72.4c-23.6-15.7-55.1-10.8-73.5,11.3c-0.8,1-1.7,1.9-2.7,3c-1.3-1.6-2.3-2.7-3.2-3.8
		C120.3,54.9,91.3,49.2,69,61.2c-23.6,12.7-35.4,39.1-27.8,64.2c5.3,17.5,15.8,32.1,28.1,45.5c0.8,0.9,3,1.3,4.2,0.8
		c5.4-2,11-4,16-6.8c15.6-8.5,26.8-20.8,30.9-38.7c0.1-0.7,0.7-1.2,1.1-1.9c1.5,4.1,2.6,8,4.4,11.6c3,6.1,7,7.5,13.4,5.3
		c10-3.4,16-13.4,15.1-25.1c-0.7-10.1-4.5-19.1-9.2-27.9c-0.9-1.6-1.7-3.2-3.2-6.1c11.1-1.1,21.1-2.3,31.2-3.1
		c8.6-0.7,15,2.7,19.1,10.7c3.5,6.8,5.1,7.2,12.7,6.1c4.8-0.6,9.7-1.3,14.5-1.2c4.6,0,6.7,2.4,6.8,6.8c0.2,4.3,0.3,8.7,0,13
		c-0.8,11.3-6.1,20-16,25.7c-9.9,5.7-20.8,7.4-31.9,7.9c-1.9,0.1-3.9-0.7-5.7-1.4c-5.2-2-10.3-4.3-15.4-6.4
		c-0.4,0.2-0.8,0.5-1.3,0.7c3.7,9.4-1.6,14.9-7.7,20.1c-4.8,4.1-5.7,9.6-5,15.5c0.4,2.9-0.1,5.3-2.6,7.2c-2.3,1.7-2.1,3.9-0.8,6.1
		c2.4,4.3,5.8,7.5,10.7,8.7C151.8,199,153,199.3,155.2,199.9z M180.5,91.4c-2,0-4.1,1.2-4.5,4.4c-0.3,2.8,1.1,4.7,3.8,5.3
		c3.1,0.6,5.1-0.8,5.5-2.9C183.6,95.8,182.4,94.1,180.5,91.4z"/>
	<path style="fill:#FF0049;" d="M155.2,199.9c-2.2-0.6-3.5-0.9-4.7-1.2c-4.9-1.3-8.2-4.4-10.7-8.7c-1.3-2.3-1.4-4.4,0.8-6.1
		c2.5-1.9,2.9-4.3,2.6-7.2c-0.7-5.9,0.2-11.5,5-15.5c6.1-5.2,11.4-10.7,7.7-20.1c0.4-0.2,0.8-0.5,1.3-0.7c5.1,2.2,10.2,4.4,15.4,6.4
		c1.8,0.7,3.8,1.5,5.7,1.4c11.1-0.6,22.1-2.3,31.9-7.9c9.9-5.7,15.2-14.4,16-25.7c0.3-4.3,0.2-8.6,0-13c-0.2-4.5-2.3-6.8-6.8-6.8
		c-4.8,0-9.7,0.6-14.5,1.2c-7.6,1-9.3,0.7-12.7-6.1c-4.1-8.1-10.5-11.4-19.1-10.7c-10,0.8-20,2-31.2,3.1c1.5,2.9,2.4,4.5,3.2,6.1
		c4.7,8.8,8.4,17.8,9.2,27.9c0.8,11.7-5.2,21.8-15.1,25.1c-6.4,2.2-10.4,0.8-13.4-5.3c-1.8-3.6-2.9-7.5-4.4-11.6
		c-0.4,0.7-0.9,1.3-1.1,1.9c-4.1,17.8-15.3,30.1-30.9,38.7c-5.1,2.8-10.6,4.7-16,6.8c-1.2,0.4-3.4,0-4.2-0.8
		c-12.3-13.3-22.8-27.9-28.1-45.5c-7.6-25.1,4.2-51.6,27.8-64.2c22.3-11.9,51.2-6.2,67.8,13.4c1,1.1,1.9,2.3,3.2,3.8
		c1-1.1,1.9-2,2.7-3c18.4-22.1,49.9-26.9,73.5-11.3c23.9,15.8,31.6,46.6,18.6,72.4c-15.6,31-40,53.1-69.3,70.2
		c-9.7,5.6-19.9,10.3-29.9,15.4c-5.9,3-12.2,3.5-18.6,2.3c-2-0.4-4.7-1.9-5.4-3.6c-0.9-2,3.1-4.5,6.3-4.8c5.4-0.5,11.1-0.6,16.2-2.4
		C141.8,211.1,148.5,206.4,155.2,199.9z"/>
	<path style="fill:#515151;" d="M102.6,123.9c-0.6-7.7-9-15.9-17.1-16.2c-8-0.3-17.4,7.9-17.5,15.5c0,2.3,0.7,4.8,1.8,6.9
		c1.5,2.8,4,4,7.1,2.3c5.6-3,11-2.9,16.6,0.1c2.7,1.5,5.2,0.5,6.6-2C101.2,128.5,101.8,126.1,102.6,123.9z"/>
	<path style="fill:#515151;" d="M84,94c-0.4-3.3-0.6-5.5-1-7.6c-0.5-2.6-2.2-3.3-4.5-2.1c-4.9,2.4-7.7,11.6-5.1,16.4
		c2.2,4,6.4,4.2,8.6,0.2C83.2,98.6,83.5,95.7,84,94z"/>
	<path style="fill:#515151;" d="M86,93.4c0.3,1.6,0.3,4.2,1.4,6.2c1,1.8,3.3,4,4.8,3.9c1.8-0.2,4.1-2.5,4.9-4.4
		c1.9-4.5-1-12-5.1-14.6c-2.5-1.6-4.4-0.8-5.1,2.1C86.4,88.6,86.4,90.6,86,93.4z"/>
	<path style="fill:#515151;" d="M108.6,106.1c-0.8-2.8-1.2-5.8-2.5-8.5c-1.6-3.4-4.2-3.5-5.9-0.3c-1.3,2.6-2.4,5.5-2.8,8.4
		c-0.7,4.9,2.2,9.4,5.6,9.3C106.1,115,108.3,111.2,108.6,106.1z"/>
	<path style="fill:#515151;" d="M61.4,106.2c0.2,0,0.4,0.1,0.5,0.1c0,0.7-0.1,1.4,0,2c0.4,3.2,1.3,6.3,5.2,6.6
		c2.6,0.2,5.8-3.4,5.5-6.9c-0.3-3.7-1.4-7.4-2.9-10.8c-1.4-3.1-4.2-3.1-5.7,0.1C62.7,100.1,62.3,103.2,61.4,106.2z"/>
	<path style="fill:#515151;" d="M160.4,177.5c-2.3-1.8-3.8-3.8-4.9-3.6c-1.5,0.3-2.6,2.3-3.9,3.6c1.2,1.2,2.4,3.2,3.7,3.3
		C156.6,180.9,158,179.1,160.4,177.5z"/>
	<path style="fill:#FF0049;" d="M180.5,91.4c1.9,2.7,3.2,4.4,4.9,6.9c-0.5,2.1-2.5,3.4-5.5,2.9c-2.8-0.5-4.1-2.5-3.8-5.3
		C176.4,92.6,178.5,91.4,180.5,91.4z"/>
	<path style="fill:#FFFFFF;" d="M102.6,123.9c-0.8,2.2-1.4,4.6-2.6,6.6c-1.5,2.4-3.9,3.4-6.6,2c-5.5-3-11-3.1-16.6-0.1
		c-3.1,1.7-5.7,0.5-7.1-2.3c-1.1-2.1-1.8-4.6-1.8-6.9c0.1-7.6,9.5-15.8,17.5-15.5C93.5,108,102,116.2,102.6,123.9z"/>
	<path style="fill:#FFFFFF;" d="M84,94c-0.5,1.7-0.8,4.6-2.1,7c-2.2,4-6.4,3.7-8.6-0.2c-2.6-4.8,0.2-14,5.1-16.4
		c2.4-1.2,4-0.4,4.5,2.1C83.5,88.5,83.6,90.7,84,94z"/>
	<path style="fill:#FFFFFF;" d="M86,93.4c0.3-2.8,0.4-4.9,0.8-6.8c0.7-3,2.6-3.7,5.1-2.1c4.1,2.6,7.1,10.1,5.1,14.6
		c-0.8,1.9-3.1,4.1-4.9,4.4c-1.5,0.2-3.9-2.1-4.8-3.9C86.3,97.6,86.3,95,86,93.4z"/>
	<path style="fill:#FFFFFF;" d="M108.6,106.1c-0.3,5.1-2.5,8.9-5.6,9c-3.4,0.1-6.3-4.4-5.6-9.3c0.4-2.9,1.4-5.8,2.8-8.4
		c1.7-3.3,4.4-3.2,5.9,0.3C107.3,100.2,107.8,103.2,108.6,106.1z"/>
	<path style="fill:#FFFFFF;" d="M61.4,106.2c0.8-3,1.3-6.1,2.6-8.8c1.5-3.2,4.3-3.2,5.7-0.1c1.5,3.4,2.6,7.1,2.9,10.8
		c0.3,3.6-2.8,7.2-5.5,6.9c-3.9-0.4-4.8-3.4-5.2-6.6c-0.1-0.7,0-1.3,0-2C61.8,106.3,61.6,106.2,61.4,106.2z"/>
	<path style="fill:#FFFFFF;" d="M160.4,177.5c-2.3,1.6-3.8,3.4-5.1,3.3c-1.3-0.1-2.5-2.1-3.7-3.3c1.3-1.3,2.4-3.3,3.9-3.6
		C156.6,173.7,158.1,175.7,160.4,177.5z"/>
</g>
</svg>
